<?xml version="1.0" standalone="no"?>
<!DOCTYPE svg PUBLIC "-//W3C//DTD SVG 20010904//EN"
 "http://www.w3.org/TR/2001/REC-SVG-20010904/DTD/svg10.dtd">
<svg version="1.0" xmlns="http://www.w3.org/2000/svg"
 width="984.000000pt" height="984.000000pt" viewBox="0 0 984.000000 984.000000"
 preserveAspectRatio="xMidYMid meet">

<g transform="translate(0.000000,984.000000) scale(0.100000,-0.100000)"
fill="#000000" stroke="none">
<path d="M0 4920 l0 -4920 4920 0 4920 0 0 4920 0 4920 -4920 0 -4920 0 0
-4920z m4956 1244 c47 -20 140 -82 177 -120 25 -25 28 -34 24 -68 -6 -42 -14
-51 -102 -110 -76 -51 -90 -53 -131 -17 -19 17 -37 31 -40 31 -3 0 -26 -12
-51 -27 l-45 -26 -42 23 c-23 12 -67 45 -97 72 -34 31 -60 47 -72 44 -9 -2
-15 -1 -12 4 3 4 -9 13 -26 20 -42 18 -101 -1 -162 -52 -26 -22 -50 -38 -53
-35 -11 11 8 48 44 83 43 42 82 63 206 111 207 81 306 99 382 67z m204 -80 c0
-2 -7 -4 -15 -4 -8 0 -15 4 -15 10 0 5 7 7 15 4 8 -4 15 -8 15 -10z m220 -159
c11 -13 10 -14 -4 -9 -9 3 -16 10 -16 15 0 13 6 11 20 -6z m-749 -52 c13 -15
12 -15 -8 -4 -24 12 -29 21 -14 21 5 0 15 -7 22 -17z m64 -43 c3 -5 -1 -10 -9
-10 -9 0 -16 5 -16 10 0 6 4 10 9 10 6 0 13 -4 16 -10z m-346 -129 c31 -41 65
-75 84 -82 20 -9 70 -14 134 -14 56 1 100 -2 97 -6 -11 -18 -124 -50 -193 -56
-72 -5 -78 -4 -108 21 -17 14 -38 43 -46 65 -16 38 -34 141 -25 141 2 0 28
-31 57 -69z m1117 -45 c-21 -65 -48 -110 -80 -131 -22 -15 -35 -15 -98 -6 -89
14 -156 37 -183 64 -20 20 -20 20 5 13 14 -3 61 -9 105 -12 104 -8 135 5 205
88 60 71 72 67 46 -16z m-540 -11 c17 -13 13 -14 -43 -12 -60 2 -78 9 -50 20
25 11 74 7 93 -8z m-38 -174 c8 -5 -8 -6 -40 -4 -73 6 -83 11 -23 12 28 0 56
-3 63 -8z m-352 -188 c-10 -10 -19 5 -10 18 6 11 8 11 12 0 2 -7 1 -15 -2 -18z
m294 -74 c0 -6 -4 -7 -10 -4 -5 3 -10 11 -10 16 0 6 5 7 10 4 6 -3 10 -11 10
-16z m145 -59 c3 -5 1 -10 -4 -10 -6 0 -11 5 -11 10 0 6 2 10 4 10 3 0 8 -4
11 -10z m-78 -342 c-3 -7 -5 -2 -5 12 0 14 2 19 5 13 2 -7 2 -19 0 -25z m180
-43 c-12 -25 -27 -34 -27 -16 0 9 27 41 35 41 2 0 -2 -11 -8 -25z m-70 -31
c-3 -3 -12 -4 -19 -1 -8 3 -5 6 6 6 11 1 17 -2 13 -5z m2684 -1715 c17 -9 19
-17 13 -57 -10 -68 -21 -92 -43 -92 -24 0 -31 -18 -18 -48 7 -16 7 -29 -3 -47
-11 -20 -11 -27 1 -41 10 -12 13 -44 10 -123 -3 -107 12 -224 32 -249 8 -9 22
-12 46 -7 20 3 49 6 65 6 16 0 37 4 48 10 17 9 18 8 10 -8 -27 -49 -112 -103
-163 -103 -34 0 -85 37 -103 75 -9 19 -22 64 -29 101 l-12 66 -31 -43 c-83
-114 -181 -185 -272 -196 -41 -4 -50 -2 -68 18 -30 34 -39 75 -17 87 14 8 15
16 6 48 -17 67 -10 109 28 152 19 22 53 62 76 89 27 33 52 52 72 56 21 5 32
14 37 31 6 27 47 46 96 46 33 0 78 -39 78 -67 1 -15 2 -15 9 -3 5 8 14 67 21
130 13 120 23 160 43 172 17 11 45 10 68 -3z m-784 -5 c13 -4 20 -10 17 -15
-3 -5 2 -9 12 -9 13 0 15 -6 10 -32 -11 -59 -66 -83 -130 -58 -36 13 -33 45 8
86 35 35 45 38 83 28z m-383 -20 c22 -22 20 -47 -14 -160 -17 -54 -33 -119
-36 -144 -2 -25 -9 -72 -14 -105 -6 -33 -10 -77 -10 -97 0 -24 -6 -40 -17 -47
-14 -8 -15 -12 -4 -25 11 -13 11 -17 0 -20 -8 -2 -27 -9 -44 -14 l-30 -9 32
-7 c18 -4 40 -3 52 3 13 7 22 8 26 1 3 -5 16 -10 29 -10 12 0 26 -3 30 -7 9
-9 14 -10 63 -12 l36 -1 -19 -21 c-23 -27 -111 -69 -142 -69 -60 0 -135 73
-118 115 3 8 1 17 -4 20 -6 4 -10 26 -10 51 l0 44 -67 -71 c-67 -70 -124 -109
-162 -109 -41 0 -70 23 -87 67 l-17 43 -53 -59 c-62 -69 -112 -96 -158 -87
-37 7 -71 39 -80 76 -3 14 -3 19 0 13 4 -10 11 -9 29 3 21 14 23 22 22 87 -1
40 -5 75 -9 78 -5 3 5 33 22 66 37 74 102 137 131 128 31 -10 66 2 72 25 4 14
13 20 34 20 39 0 49 -9 72 -63 18 -42 19 -54 10 -93 -13 -52 -8 -179 8 -195
20 -20 61 -1 117 56 84 83 135 178 157 288 10 50 26 118 35 150 27 92 78 131
118 91z m-849 -88 c40 -17 43 -31 15 -65 -26 -30 -73 -40 -187 -41 -85 0 -93
2 -105 23 -7 12 -12 27 -13 32 0 17 -55 18 -55 1 0 -8 5 -18 10 -21 22 -14 8
-33 -29 -39 -31 -5 -46 -15 -70 -48 -17 -23 -31 -47 -31 -53 0 -6 44 -19 98
-29 166 -31 214 -63 228 -152 24 -161 -232 -310 -430 -250 -52 16 -116 60
-116 80 0 16 37 27 98 30 31 2 41 -1 38 -10 -7 -18 17 -24 82 -23 41 1 50 3
32 8 l-25 7 28 6 c16 3 57 3 92 0 35 -2 71 -2 81 2 16 6 16 8 0 25 -14 16 -15
19 -2 24 11 4 13 17 9 49 -10 77 -54 104 -180 114 -87 7 -159 35 -168 65 -7
22 58 133 118 203 39 46 73 53 247 56 58 2 119 6 135 10 47 12 63 11 100 -4z
m-3306 -17 c24 -9 77 -8 207 1 157 10 178 10 200 -4 51 -34 25 -76 -88 -142
-131 -75 -132 -76 -72 -68 77 10 162 -12 200 -50 120 -120 -24 -308 -277 -362
-85 -18 -203 -13 -249 11 -47 24 -54 95 -10 95 11 0 20 7 20 15 0 17 9 19 30
5 10 -6 11 -10 3 -10 -7 0 -13 -9 -13 -20 0 -18 6 -20 68 -19 46 0 61 3 47 9
-14 6 7 9 65 10 47 1 93 2 103 1 9 -1 17 4 17 11 0 7 16 22 36 33 52 28 84 70
84 111 0 47 -30 64 -124 71 -63 5 -86 2 -136 -16 -71 -26 -100 -21 -100 16 0
18 14 40 48 70 86 81 121 86 123 19 1 -30 1 -31 8 -6 5 14 20 39 35 54 19 21
23 32 16 42 -8 9 -5 16 12 28 21 15 21 16 2 16 -25 0 -44 18 -44 42 0 12 -8
18 -23 18 -34 0 -39 -10 -21 -38 8 -13 13 -26 10 -29 -11 -12 -162 -33 -193
-28 -58 10 -97 90 -55 114 22 13 32 13 71 0z m2080 -138 c7 -5 10 -14 7 -20
-5 -7 2 -11 18 -11 51 0 61 -83 11 -96 -16 -4 -34 0 -50 10 -13 9 -31 16 -39
16 -25 0 -123 -119 -160 -194 -20 -40 -40 -94 -45 -120 -11 -60 -30 -81 -66
-72 -33 8 -42 32 -50 144 l-7 91 -23 -28 c-18 -20 -33 -27 -65 -28 -51 -2 -80
-26 -80 -65 0 -26 -3 -28 -41 -28 -36 0 -48 6 -84 43 -27 27 -52 67 -71 114
-16 40 -34 73 -41 73 -7 0 -31 -33 -54 -72 -64 -114 -72 -123 -107 -123 -18 0
-31 -4 -29 -10 1 -5 12 -10 25 -9 12 1 22 -2 22 -7 0 -14 -61 -59 -81 -59 -18
0 -58 32 -60 48 0 4 -4 53 -8 109 -4 57 -11 106 -15 110 -12 11 -50 -39 -127
-164 -71 -116 -104 -149 -138 -138 -24 7 -36 26 -46 73 -6 31 -6 32 29 32 l36
0 -16 25 c-20 31 -32 32 -44 3 -9 -23 -9 -22 -9 3 -1 15 6 66 15 115 9 49 19
111 22 139 7 48 8 49 47 57 32 7 42 6 52 -9 18 -24 16 -51 -12 -165 -14 -55
-24 -102 -22 -105 2 -2 23 27 46 64 92 152 158 213 215 199 32 -8 54 -66 62
-166 4 -44 11 -80 15 -80 4 0 29 40 54 90 27 52 63 104 86 125 71 64 112 44
158 -80 35 -91 72 -145 100 -145 50 0 201 139 201 185 0 40 26 92 55 111 21
14 31 15 51 6 36 -17 37 -30 14 -113 -29 -107 -25 -112 24 -29 24 41 57 87 73
102 54 51 117 71 152 49z m2411 -36 c10 -12 10 -31 1 -90 -14 -95 -13 -170 2
-215 21 -61 73 -52 185 32 30 22 55 38 57 36 3 -2 -3 -17 -11 -33 -8 -16 -14
-43 -12 -59 3 -27 -4 -35 -51 -68 -101 -70 -176 -75 -238 -13 -42 42 -42 55 2
55 35 0 51 23 23 33 -10 3 -10 8 1 21 19 23 3 33 -50 30 -35 -1 -47 -9 -84
-48 -40 -44 -44 -46 -71 -36 -16 6 -31 16 -35 21 -3 5 23 39 58 75 75 76 103
119 103 156 0 38 10 58 26 51 9 -3 14 2 14 15 0 21 34 52 56 52 6 0 17 -7 24
-15z m1025 -265 c-3 -5 -11 -10 -16 -10 -6 0 -7 5 -4 10 3 6 11 10 16 10 6 0
7 -4 4 -10z m-45 -50 c0 -5 -7 -10 -16 -10 -8 0 -12 5 -9 10 3 6 10 10 16 10
5 0 9 -4 9 -10z"/>
<path d="M7419 2678 c-81 -76 -169 -223 -169 -281 0 -62 44 -48 148 48 77 71
110 119 91 131 -6 4 -8 20 -5 39 7 36 -10 85 -29 85 -7 0 -23 -10 -36 -22z"/>
<path d="M5943 2651 c-40 -25 -97 -126 -120 -214 -21 -78 -12 -99 32 -79 14 7
35 12 47 12 15 0 18 3 10 13 -8 9 -2 26 22 64 55 87 83 209 51 220 -5 1 -24
-6 -42 -16z"/>
</g>
</svg>
